# xmcd
#
# Track frame offsets: 
#        150
#        14601
#        30780
#        46739
#        61484
#        75715
#        93843
#        109986
#        125798
#        140366
#        158812
#        171500
#
# Disc length: 2475 seconds
#
# Revision: 1
# Processed by: cddbd v1.5.2PL0 Copyright (c) Steve Scherf et al.
# Submitted via: ExactAudioCopy v0.95b3
#
DISCID=9909a90c
DTITLE=Truck Stop - Auf Achse
DYEAR=1900
DGENRE=Country
TTITLE0=Nashville Tennessee
TTITLE1=Hannas Mann
TTITLE2=Ich rauch' zuviel
TTITLE3=Der Tramp
TTITLE4=Der letzte Trip
TTITLE5=Amerika
TTITLE6=Kopf oder Zahl
TTITLE7=Jeden Tag in einer anderen Stadt
TTITLE8=Der König von der Autobahn
TTITLE9=Sie will zurück nach München
TTITLE10=Die Zeiten
TTITLE11=Jetzt ist Schluß
EXTD=
EXTT0=
EXTT1=
EXTT2=
EXTT3=
EXTT4=
EXTT5=
EXTT6=
EXTT7=
EXTT8=
EXTT9=
EXTT10=
EXTT11=
PLAYORDER=
